<svg width="18" height="18" viewBox="0 0 18 18" fill="none" xmlns="http://www.w3.org/2000/svg">
<path fill-rule="evenodd" clip-rule="evenodd" d="M10.7197 1.21967C11.0126 0.926777 11.4875 0.926777 11.7803 1.21967L14.7803 4.21967C15.0732 4.51256 15.0732 4.98744 14.7803 5.28033L12.7806 7.28008C12.7805 7.28017 12.7804 7.28025 12.7803 7.28033C12.7803 7.28041 12.7802 7.28049 12.7801 7.28058L6.28035 13.7803C6.18423 13.8764 6.06379 13.9446 5.93192 13.9776L1.93192 14.9776C1.67634 15.0415 1.40597 14.9666 1.21969 14.7803C1.0334 14.594 0.958514 14.3237 1.02241 14.0681L2.02241 10.0681C2.05538 9.93622 2.12357 9.81579 2.21969 9.71967L8.71929 3.22006C8.71942 3.21993 8.71955 3.2198 8.71969 3.21967C8.71982 3.21954 8.71995 3.21941 8.72008 3.21927L10.7197 1.21967ZM9.25002 4.81066L3.42724 10.6334L2.78079 13.2192L5.36658 12.5728L11.1894 6.75L9.25002 4.81066ZM12.25 5.68934L10.3107 3.75L11.25 2.81066L13.1894 4.75L12.25 5.68934ZM1.00002 16.75C1.00002 16.3358 1.3358 16 1.75002 16H15.75C16.1642 16 16.5 16.3358 16.5 16.75C16.5 17.1642 16.1642 17.5 15.75 17.5H1.75002C1.3358 17.5 1.00002 17.1642 1.00002 16.75Z" fill="#0B0F32"/>
</svg>
